name ./resultDataOpenSim/trcMotMarkerGrf/sub10/grf-02-05.mot
datacolumns 19
datarows 30
range 0.52000000 0.63600000
endheader

                time	     ground_force_vx	     ground_force_vy	     ground_force_vz	     ground_force_px	     ground_force_py	     ground_force_pz	   l_ground_force_vx	   l_ground_force_vy	   l_ground_force_vz	   l_ground_force_px	   l_ground_force_py	   l_ground_force_pz	     ground_torque_x	     ground_torque_y	     ground_torque_z	   l_ground_torque_x	   l_ground_torque_y	   l_ground_torque_z	
          0.52000000	         24.84287523	        477.17906203	        -20.56757551	         -0.75254665	          0.00000000	          0.08778166	          0.00000000	          0.00000000	          0.00000000	          0.00000000	          0.00000000	          0.00000000	          0.00000000	          1.76151833	          0.00000000	          0.00000000	          0.00000000	          0.00000000	
          0.52400000	         25.82564065	        479.92702720	        -20.43151987	         -0.75128209	          0.00000000	          0.08779659	          0.00000000	          0.00000000	          0.00000000	          0.00000000	          0.00000000	          0.00000000	          0.00000000	          1.86121249	          0.00000000	          0.00000000	          0.00000000	          0.00000000	
          0.52800000	         26.70786974	        483.06161210	        -20.75365569	         -0.74999586	          0.00000000	          0.08781643	          0.00000000	          0.00000000	          0.00000000	          0.00000000	          0.00000000	          0.00000000	          0.00000000	          1.92043929	          0.00000000	          0.00000000	          0.00000000	          0.00000000	
          0.53200000	         27.80188554	        486.63829725	        -21.58964344	         -0.74872015	          0.00000000	          0.08785330	          0.00000000	          0.00000000	          0.00000000	          0.00000000	          0.00000000	          0.00000000	          0.00000000	          1.92593470	          0.00000000	          0.00000000	          0.00000000	          0.00000000	
          0.53600000	         29.36640823	        490.72936098	        -22.90387737	         -0.74747301	          0.00000000	          0.08791397	          0.00000000	          0.00000000	          0.00000000	          0.00000000	          0.00000000	          0.00000000	          0.00000000	          1.87542863	          0.00000000	          0.00000000	          0.00000000	          0.00000000	
          0.54000000	         31.52299287	        495.42253953	        -24.58085646	         -0.74625600	          0.00000000	          0.08799947	          0.00000000	          0.00000000	          0.00000000	          0.00000000	          0.00000000	          0.00000000	          0.00000000	          1.77914912	          0.00000000	          0.00000000	          0.00000000	          0.00000000	
          0.54400000	         34.21038437	        500.81357731	        -26.44894547	         -0.74505614	          0.00000000	          0.08810229	          0.00000000	          0.00000000	          0.00000000	          0.00000000	          0.00000000	          0.00000000	          0.00000000	          1.65800342	          0.00000000	          0.00000000	          0.00000000	          0.00000000	
          0.54800000	         37.19380108	        506.99677193	        -28.31638879	         -0.74384138	          0.00000000	          0.08820435	          0.00000000	          0.00000000	          0.00000000	          0.00000000	          0.00000000	          0.00000000	          0.00000000	          1.53894052	          0.00000000	          0.00000000	          0.00000000	          0.00000000	
          0.55200000	         40.13438374	        514.04444596	        -30.01569024	         -0.74256467	          0.00000000	          0.08828540	          0.00000000	          0.00000000	          0.00000000	          0.00000000	          0.00000000	          0.00000000	          0.00000000	          1.44881550	          0.00000000	          0.00000000	          0.00000000	          0.00000000	
          0.55600000	         42.69628573	        521.98129701	        -31.44432652	         -0.74118114	          0.00000000	          0.08833490	          0.00000000	          0.00000000	          0.00000000	          0.00000000	          0.00000000	          0.00000000	          0.00000000	          1.40836421	          0.00000000	          0.00000000	          0.00000000	          0.00000000	
          0.56000000	         44.64763793	        530.77225666	        -32.58629212	         -0.73966770	          0.00000000	          0.08835526	          0.00000000	          0.00000000	          0.00000000	          0.00000000	          0.00000000	          0.00000000	          0.00000000	          1.42768255	          0.00000000	          0.00000000	          0.00000000	          0.00000000	
          0.56400000	         45.92158554	        540.33176456	        -33.50745397	         -0.73803081	          0.00000000	          0.08835501	          0.00000000	          0.00000000	          0.00000000	          0.00000000	          0.00000000	          0.00000000	          0.00000000	          1.50414689	          0.00000000	          0.00000000	          0.00000000	          0.00000000	
          0.56800000	         46.62964772	        550.54929959	        -34.33144044	         -0.73629857	          0.00000000	          0.08833988	          0.00000000	          0.00000000	          0.00000000	          0.00000000	          0.00000000	          0.00000000	          0.00000000	          1.62322260	          0.00000000	          0.00000000	          0.00000000	          0.00000000	
          0.57200000	         47.03441945	        561.31601406	        -35.20536060	         -0.73451375	          0.00000000	          0.08831178	          0.00000000	          0.00000000	          0.00000000	          0.00000000	          0.00000000	          0.00000000	          0.00000000	          1.76209299	          0.00000000	          0.00000000	          0.00000000	          0.00000000	
          0.57600000	         47.48927502	        572.53804970	        -36.25966576	         -0.73273425	          0.00000000	          0.08827368	          0.00000000	          0.00000000	          0.00000000	          0.00000000	          0.00000000	          0.00000000	          0.00000000	          1.89543378	          0.00000000	          0.00000000	          0.00000000	          0.00000000	
          0.58000000	         48.35302369	        584.14065350	        -37.57074398	         -0.73102392	          0.00000000	          0.08822890	          0.00000000	          0.00000000	          0.00000000	          0.00000000	          0.00000000	          0.00000000	          0.00000000	          2.00201934	          0.00000000	          0.00000000	          0.00000000	          0.00000000	
          0.58400000	         49.89834465	        596.07487651	        -39.14076524	         -0.72943500	          0.00000000	          0.08817374	          0.00000000	          0.00000000	          0.00000000	          0.00000000	          0.00000000	          0.00000000	          0.00000000	          2.07040727	          0.00000000	          0.00000000	          0.00000000	          0.00000000	
          0.58800000	         52.24582628	        608.32177136	        -40.89849147	         -0.72799390	          0.00000000	          0.08809966	          0.00000000	          0.00000000	          0.00000000	          0.00000000	          0.00000000	          0.00000000	          0.00000000	          2.10200599	          0.00000000	          0.00000000	          0.00000000	          0.00000000	
          0.59200000	         55.35007331	        620.88327400	        -42.71214188	         -0.72669942	          0.00000000	          0.08799665	          0.00000000	          0.00000000	          0.00000000	          0.00000000	          0.00000000	          0.00000000	          0.00000000	          2.11052067	          0.00000000	          0.00000000	          0.00000000	          0.00000000	
          0.59600000	         59.03877753	        633.76662901	        -44.41248952	         -0.72552946	          0.00000000	          0.08785724	          0.00000000	          0.00000000	          0.00000000	          0.00000000	          0.00000000	          0.00000000	          0.00000000	          2.11789128	          0.00000000	          0.00000000	          0.00000000	          0.00000000	
          0.60000000	         63.08334282	        646.97313491	        -45.82981823	         -0.72446467	          0.00000000	          0.08767966	          0.00000000	          0.00000000	          0.00000000	          0.00000000	          0.00000000	          0.00000000	          0.00000000	          2.14794116	          0.00000000	          0.00000000	          0.00000000	          0.00000000	
          0.60400000	         67.27808410	        660.49002630	        -46.83438695	         -0.72349626	          0.00000000	          0.08746213	          0.00000000	          0.00000000	          0.00000000	          0.00000000	          0.00000000	          0.00000000	          0.00000000	          2.21963527	          0.00000000	          0.00000000	          0.00000000	          0.00000000	
          0.60800000	         71.50888520	        674.28251931	        -47.36400068	         -0.72261782	          0.00000000	          0.08720205	          0.00000000	          0.00000000	          0.00000000	          0.00000000	          0.00000000	          0.00000000	          0.00000000	          2.34188934	          0.00000000	          0.00000000	          0.00000000	          0.00000000	
          0.61200000	         75.78962421	        688.28745176	        -47.43315935	         -0.72182220	          0.00000000	          0.08689988	          0.00000000	          0.00000000	          0.00000000	          0.00000000	          0.00000000	          0.00000000	          0.00000000	          2.51125631	          0.00000000	          0.00000000	          0.00000000	          0.00000000	
          0.61600000	         80.25191094	        702.41083055	        -47.12371210	         -0.72110552	          0.00000000	          0.08656080	          0.00000000	          0.00000000	          0.00000000	          0.00000000	          0.00000000	          0.00000000	          0.00000000	          2.71283840	          0.00000000	          0.00000000	          0.00000000	          0.00000000	
          0.62000000	         85.09372179	        716.52840372	        -46.55978294	         -0.72047156	          0.00000000	          0.08618961	          0.00000000	          0.00000000	          0.00000000	          0.00000000	          0.00000000	          0.00000000	          0.00000000	          2.92390762	          0.00000000	          0.00000000	          0.00000000	          0.00000000	
          0.62400000	         90.51027861	        730.48624118	        -45.87808487	         -0.71992543	          0.00000000	          0.08579054	          0.00000000	          0.00000000	          0.00000000	          0.00000000	          0.00000000	          0.00000000	          0.00000000	          3.11919068	          0.00000000	          0.00000000	          0.00000000	          0.00000000	
          0.62800000	         96.63390280	        744.10172926	        -45.20364675	         -0.71946299	          0.00000000	          0.08536918	          0.00000000	          0.00000000	          0.00000000	          0.00000000	          0.00000000	          0.00000000	          0.00000000	          3.27654126	          0.00000000	          0.00000000	          0.00000000	          0.00000000	
          0.63200000	        103.49738235	        757.16885520	        -44.62930738	         -0.71907543	          0.00000000	          0.08493336	          0.00000000	          0.00000000	          0.00000000	          0.00000000	          0.00000000	          0.00000000	          0.00000000	          3.38171613	          0.00000000	          0.00000000	          0.00000000	          0.00000000	
          0.63600000	        111.02287742	        769.46943550	        -44.19526730	         -0.71875069	          0.00000000	          0.08448984	          0.00000000	          0.00000000	          0.00000000	          0.00000000	          0.00000000	          0.00000000	          0.00000000	          3.43117478	          0.00000000	          0.00000000	          0.00000000	          0.00000000	
